<svg xmlns="http://www.w3.org/2000/svg" viewBox="0 0 730 130" width="730" height="130" role="img" aria-label="pixelpact" shape-rendering="crispEdges"><rect x="10" y="40" width="60" height="10" fill="#171717"/><rect x="10" y="50" width="60" height="10" fill="#171717"/><rect x="10" y="60" width="20" height="10" fill="#171717"/><rect x="50" y="60" width="20" height="10" fill="#171717"/><rect x="10" y="70" width="20" height="10" fill="#171717"/><rect x="50" y="70" width="20" height="10" fill="#171717"/><rect x="10" y="80" width="60" height="10" fill="#171717"/><rect x="10" y="90" width="60" height="10" fill="#171717"/><rect x="10" y="100" width="20" height="10" fill="#171717"/><rect x="10" y="110" width="20" height="10" fill="#171717"/><rect x="110" y="10" width="20" height="10" fill="#171717"/><rect x="110" y="20" width="20" height="10" fill="#171717"/><rect x="110" y="40" width="20" height="10" fill="#171717"/><rect x="110" y="50" width="20" height="10" fill="#171717"/><rect x="110" y="60" width="20" height="10" fill="#171717"/><rect x="110" y="70" width="20" height="10" fill="#171717"/><rect x="110" y="80" width="20" height="10" fill="#171717"/><rect x="110" y="90" width="20" height="10" fill="#171717"/><rect x="170" y="40" width="20" height="10" fill="#171717"/><rect x="220" y="40" width="20" height="10" fill="#171717"/><rect x="180" y="50" width="20" height="10" fill="#171717"/><rect x="210" y="50" width="20" height="10" fill="#171717"/><rect x="190" y="60" width="30" height="10" fill="#171717"/><rect x="190" y="70" width="30" height="10" fill="#171717"/><rect x="180" y="80" width="20" height="10" fill="#171717"/><rect x="210" y="80" width="20" height="10" fill="#171717"/><rect x="170" y="90" width="20" height="10" fill="#171717"/><rect x="220" y="90" width="20" height="10" fill="#171717"/><rect x="260" y="40" width="50" height="10" fill="#171717"/><rect x="250" y="50" width="20" height="10" fill="#171717"/><rect x="300" y="50" width="20" height="10" fill="#171717"/><rect x="250" y="60" width="70" height="10" fill="#171717"/><rect x="250" y="70" width="20" height="10" fill="#171717"/><rect x="250" y="80" width="20" height="10" fill="#171717"/><rect x="300" y="80" width="20" height="10" fill="#171717"/><rect x="260" y="90" width="50" height="10" fill="#171717"/><rect x="340" y="10" width="20" height="10" fill="#171717"/><rect x="340" y="20" width="20" height="10" fill="#171717"/><rect x="340" y="30" width="20" height="10" fill="#171717"/><rect x="340" y="40" width="20" height="10" fill="#171717"/><rect x="340" y="50" width="20" height="10" fill="#171717"/><rect x="340" y="60" width="20" height="10" fill="#171717"/><rect x="340" y="70" width="20" height="10" fill="#171717"/><rect x="340" y="80" width="20" height="10" fill="#171717"/><rect x="340" y="90" width="30" height="10" fill="#171717"/><rect x="410" y="40" width="60" height="10" fill="#0b7285"/><rect x="410" y="50" width="60" height="10" fill="#0b7285"/><rect x="410" y="60" width="20" height="10" fill="#0b7285"/><rect x="450" y="60" width="20" height="10" fill="#0b7285"/><rect x="410" y="70" width="20" height="10" fill="#0b7285"/><rect x="450" y="70" width="20" height="10" fill="#0b7285"/><rect x="410" y="80" width="60" height="10" fill="#0b7285"/><rect x="410" y="90" width="60" height="10" fill="#0b7285"/><rect x="410" y="100" width="20" height="10" fill="#0b7285"/><rect x="410" y="110" width="20" height="10" fill="#0b7285"/><rect x="500" y="40" width="50" height="10" fill="#0b7285"/><rect x="540" y="50" width="20" height="10" fill="#0b7285"/><rect x="500" y="60" width="60" height="10" fill="#0b7285"/><rect x="490" y="70" width="20" height="10" fill="#0b7285"/><rect x="540" y="70" width="20" height="10" fill="#0b7285"/><rect x="490" y="80" width="20" height="10" fill="#0b7285"/><rect x="540" y="80" width="20" height="10" fill="#0b7285"/><rect x="500" y="90" width="60" height="10" fill="#0b7285"/><rect x="580" y="40" width="50" height="10" fill="#0b7285"/><rect x="570" y="50" width="20" height="10" fill="#0b7285"/><rect x="620" y="50" width="20" height="10" fill="#0b7285"/><rect x="570" y="60" width="20" height="10" fill="#0b7285"/><rect x="570" y="70" width="20" height="10" fill="#0b7285"/><rect x="570" y="80" width="20" height="10" fill="#0b7285"/><rect x="620" y="80" width="20" height="10" fill="#0b7285"/><rect x="580" y="90" width="50" height="10" fill="#0b7285"/><rect x="660" y="20" width="20" height="10" fill="#0b7285"/><rect x="660" y="30" width="20" height="10" fill="#0b7285"/><rect x="650" y="40" width="60" height="10" fill="#0b7285"/><rect x="660" y="50" width="20" height="10" fill="#0b7285"/><rect x="660" y="60" width="20" height="10" fill="#0b7285"/><rect x="660" y="70" width="20" height="10" fill="#0b7285"/><rect x="660" y="80" width="20" height="10" fill="#0b7285"/><rect x="700" y="80" width="20" height="10" fill="#0b7285"/><rect x="670" y="90" width="40" height="10" fill="#0b7285"/></svg>